<?xml version="1.0" encoding="UTF-8" standalone="no"?>
<svg
   width="664"
   height="664"
   viewBox="0 0 664 664"
   fill="none"
   version="1.1"
   id="svg38"
   sodipodi:docname="on-deck.svg"
   inkscape:version="1.2.1 (9c6d41e, 2022-07-14)"
   xmlns:inkscape="http://www.inkscape.org/namespaces/inkscape"
   xmlns:sodipodi="http://sodipodi.sourceforge.net/DTD/sodipodi-0.dtd"
   xmlns="http://www.w3.org/2000/svg"
   xmlns:svg="http://www.w3.org/2000/svg">
  <defs
     id="defs42" />
  <sodipodi:namedview
     id="namedview40"
     pagecolor="#ffffff"
     bordercolor="#000000"
     borderopacity="0.25"
     inkscape:showpageshadow="2"
     inkscape:pageopacity="0.0"
     inkscape:pagecheckerboard="0"
     inkscape:deskcolor="#d1d1d1"
     showgrid="false"
     inkscape:zoom="0.35223881"
     inkscape:cx="1044.7458"
     inkscape:cy="255.50847"
     inkscape:window-width="1512"
     inkscape:window-height="722"
     inkscape:window-x="0"
     inkscape:window-y="38"
     inkscape:window-maximized="0"
     inkscape:current-layer="svg38" />
  <path
     fill-rule="evenodd"
     clip-rule="evenodd"
     d="m 515.022,151.771 h 77.308 c 6.985,0 12.648,5.663 12.648,12.648 v 31.619 c 0,6.985 -5.663,12.648 -12.648,12.648 h -34.749 c -11.518,-20.929 -25.878,-40.073 -42.559,-56.915 z m -50.529,56.915 H 333.054 c -6.985,0 -12.647,-5.663 -12.647,-12.648 v -31.619 c 0,-6.985 5.662,-12.648 12.647,-12.648 51.835,0 98.56,21.883 131.439,56.915 z m 0,246.628 c -32.879,35.032 -79.604,56.915 -131.439,56.915 -6.985,0 -12.647,-5.663 -12.647,-12.648 v -31.619 c 0,-6.985 5.662,-12.648 12.647,-12.648 z m 93.088,0 h 34.749 c 6.985,0 12.648,5.663 12.648,12.648 v 31.619 c 0,6.985 -5.663,12.648 -12.648,12.648 h -77.308 c 16.681,-16.842 31.041,-35.986 42.559,-56.915 z m -50.604,-75.885 c -5.629,20.689 -14.85,39.897 -26.953,56.914 h -146.97 c -6.985,0 -12.647,-5.663 -12.647,-12.648 v -31.619 c 0,-6.985 5.662,-12.647 12.647,-12.647 z m 77.808,0 h 7.545 c 6.985,0 12.648,5.662 12.648,12.647 v 31.619 c 0,6.985 -5.663,12.648 -12.648,12.648 h -25.311 c 8.028,-17.972 14.045,-37.039 17.766,-56.914 z m -73.736,-75.886 c 1.47,9.269 2.234,18.774 2.234,28.457 0,9.683 -0.764,19.188 -2.234,28.457 H 333.054 c -6.985,0 -12.647,-5.662 -12.647,-12.647 v -31.619 c 0,-6.986 5.662,-12.648 12.647,-12.648 z m 76.556,0 h 4.725 c 6.985,0 12.648,5.662 12.648,12.648 v 31.619 c 0,6.985 -5.663,12.647 -12.648,12.647 h -4.725 c 1.033,-9.343 1.563,-18.838 1.563,-28.457 0,-9.619 -0.53,-19.114 -1.563,-28.457 z M 480.024,227.657 c 12.103,17.017 21.324,36.225 26.953,56.914 H 332 c -6.985,0 -12.647,-5.662 -12.647,-12.647 v -31.619 c 0,-6.985 5.662,-12.648 12.647,-12.648 z m 86.995,0 h 24.257 c 6.985,0 12.648,5.663 12.648,12.648 v 31.619 c 0,6.985 -5.663,12.647 -12.648,12.647 h -6.491 c -3.721,-19.875 -9.738,-38.942 -17.766,-56.914 z"
     fill="#212d47"
     id="path34" />
  <path
     fill-rule="evenodd"
     clip-rule="evenodd"
     d="M 332,664 C 148.641,664 0,515.359 0,332 0,148.641 148.641,0 332,0 515.359,0 664,148.641 664,332 664,515.359 515.359,664 332,664 Z m 0,-75.886 C 473.448,588.114 588.114,473.448 588.114,332 588.114,190.552 473.448,75.8857 332,75.8857 190.552,75.8857 75.8857,190.552 75.8857,332 75.8857,473.448 190.552,588.114 332,588.114 Z"
     fill="#212d47"
     id="path36" />
</svg>
